<svg version="1.2" xmlns="http://www.w3.org/2000/svg" viewBox="0 0 512 512" width="512" height="512">
	<style>
		.s0 { fill: #474646 } 
		.s1 { fill: #08b0ee } 
	</style>
	<g id="Background">
		<path id="Path 0" class="s0" d="m260 139.05c-135.57 41.75-249.54 76.81-253.25 77.92l-6.75 2.03c0.51 217.32 0.65 224.92 2.35 231 1.01 3.57 4.01 11 6.67 16.5 2.67 5.5 7.1 12.7 9.86 16 2.76 3.3 7.63 8.15 10.82 10.77 3.19 2.62 9.18 6.5 13.3 8.62 4.13 2.12 10.42 4.75 14 5.84 3.58 1.1 8.64 2.5 11.25 3.13 3.47 0.83 54.42 1.14 188.75 1.14 104.74 0 184.97-0.38 186.25-0.89 1.24-0.49 4.73-1.45 7.75-2.14 3.02-0.7 8.2-2.41 11.5-3.8 3.3-1.39 9.15-4.55 13-7.01 3.85-2.45 9.52-6.99 12.6-10.06 3.07-3.08 7.63-8.75 10.11-12.6 2.48-3.85 5.41-9.02 6.5-11.5 1.09-2.48 2.68-6.98 3.54-10 0.86-3.02 2.09-8.65 2.72-12.5 0.86-5.18 1.07-54.81 0.82-190.5-0.19-100.93-0.67-184.51-1.06-185.75-0.41-1.26-1.5-2.22-2.48-2.17-0.96 0.04-112.68 34.23-248.25 75.97z"/>
		<path id="Path 1" class="s1" d="m63 1.48c-3.58 0.71-9.42 2.5-13 3.96-3.58 1.47-9.2 4.31-12.5 6.32-3.3 2.01-9.62 7.27-14.04 11.7-4.43 4.42-9.68 10.74-11.67 14.04-2 3.3-4.62 8.48-5.83 11.5-1.21 3.02-2.91 7.75-3.78 10.5-1.38 4.34-1.63 15.15-1.88 82.25l-0.3 77.25c3.49-1 117-35.9 254.5-78.2 137.5-42.3 251.25-77.22 252.77-77.6 1.73-0.44 2.77-1.36 2.75-2.45-0.01-0.96-1.16-4.79-2.56-8.5-1.4-3.71-4.41-9.9-6.69-13.75-2.37-4.02-7.79-10.62-12.7-15.5-5.52-5.47-11.24-9.99-16.07-12.69-4.13-2.31-11.1-5.46-15.5-7l-8-2.81c-341.83-0.3-380.27-0.07-385.5 0.98z"/>
		<path id="Path 2" class="s0" d="m378.55 29.16c-1.62 0.55-2.87 1.31-2.76 1.67 0.1 0.37 2.23 7.42 4.72 15.67 2.49 8.25 4.41 15.32 4.26 15.71-0.15 0.39-9.27-4.27-20.27-10.35-19-10.51-20.23-11.04-24.5-10.51-2.48 0.3-5 1.13-5.6 1.85-0.83 0.97 0.71 7.18 6.15 24.8 4 12.93 7.64 23.65 8.11 23.83 0.46 0.18 2.53-0.16 4.59-0.75q3.75-1.08 3.75-2.83c-0.01-0.96-2.05-8.5-4.55-16.75-2.49-8.25-4.3-15.23-4-15.5 0.29-0.27 9.98 4.79 21.54 11.25 18.31 10.24 21.46 11.69 24.51 11.25 1.96-0.28 3.88-1.27 4.36-2.25 0.6-1.21-1.27-8.69-6.06-24.25-3.8-12.38-7.11-22.84-7.36-23.25-0.24-0.41-1.23-0.71-2.19-0.67-0.96 0.04-3.08 0.53-4.7 1.08zm-69.45 21.33c-1.87 0.78-3.34 2-3.26 2.71 0.07 0.72 3.22 11.43 6.99 23.8 6.32 20.77 7.03 22.52 9.26 22.81 1.33 0.16 3.65-0.17 5.16-0.75 1.51-0.59 2.75-1.73 2.75-2.56 0-0.83-2.5-9.71-5.55-19.75-3.05-10.04-6.2-20.39-7-23-1.02-3.34-1.97-4.74-3.2-4.71-0.96 0.02-3.28 0.67-5.15 1.45zm-27.39 8.41c-2.51 0.88-4.81 1.83-5.1 2.1-0.29 0.28-2.14 7.7-4.11 16.5-1.98 8.8-3.8 16.34-4.05 16.75-0.25 0.41-6.08-4.65-12.95-11.25-6.88-6.6-12.84-12.01-13.25-12.01-0.41-0.01-2.89 0.67-5.5 1.5-2.61 0.83-4.98 1.96-5.25 2.51-0.28 0.55 2.68 11.46 6.56 24.25 3.89 12.79 7.15 23.4 7.25 23.58 0.11 0.18 1.88 0.06 3.94-0.25 2.06-0.32 4.02-1.14 4.35-1.83 0.33-0.69-1.42-8-3.88-16.25-2.47-8.25-4.26-15.45-3.98-16 0.28-0.55 6.51 5.08 13.86 12.5 8.59 8.68 13.69 13.14 14.29 12.5 0.51-0.55 1.9-5.95 3.1-12 1.19-6.05 2.81-14.04 3.59-17.75 0.78-3.71 1.76-6.75 2.17-6.74 0.41 0.01 2.73 6.64 5.16 14.75 2.43 8.11 4.9 15.31 5.5 16 0.85 0.98 1.86 1.01 4.59 0.11 1.93-0.63 3.86-1.42 4.3-1.76 0.45-0.33-2.48-11.3-6.5-24.37-4.01-13.07-7.8-23.91-8.41-24.1-0.61-0.19-3.17 0.37-5.68 1.26zm-95.21 29.07c-8.8 2.74-16.27 5.42-16.59 5.95-0.33 0.53 2.49 11.45 6.27 24.27 3.77 12.82 6.96 23.45 7.09 23.62 0.13 0.17 2.14 0.05 4.48-0.25 2.78-0.37 4.48-1.17 4.9-2.31 0.36-0.96-0.55-5.8-2.03-10.75-1.47-4.95-2.55-9.02-2.4-9.05 0.15-0.03 2.75-0.81 5.78-1.74 3.02-0.93 6.06-1.69 6.75-1.7 0.69 0 5.75 3.37 11.25 7.49l10 7.5c7.23-1.94 9.48-3.06 9.66-3.75 0.19-0.69-3.49-4.17-8.16-7.75-4.68-3.57-8.73-6.95-9-7.5-0.28-0.55 1.3-2.57 3.5-4.5 2.86-2.51 4.18-4.56 4.62-7.25 0.34-2.06 0.14-5.32-0.45-7.25-0.59-1.92-2.48-4.85-4.2-6.5-2.68-2.58-3.97-3.04-9.29-3.26-5.07-0.21-9.05 0.64-22.18 4.73zm-55.34 17.33c-2.17 1.17-2.63 3.16-6.61 28.23-3.03 19.1-3.95 27.16-3.16 27.63 0.61 0.36 2.68 0.09 4.61-0.61 2.78-1 3.65-1.96 4.22-4.65 0.39-1.87 1.07-3.74 1.5-4.15 0.43-0.42 6.63-2.56 13.78-4.76l13-4.01c3.87 3.86 6.01 4.99 7.25 5 1.24 0.01 3.82-0.66 5.75-1.48 1.92-0.82 3.48-1.84 3.46-2.25-0.03-0.41-8.69-9.66-19.25-20.54-10.57-10.89-19.89-19.77-20.71-19.74-0.82 0.03-2.55 0.63-3.84 1.33zm-52.66 15.09c-3.3 0.74-8.25 2.33-11 3.54-2.75 1.21-6.46 3.29-8.25 4.63-1.79 1.34-4.46 4.58-5.93 7.19q-2.68 4.75-3.14 10.75c-0.3 3.97 0.09 7.69 1.17 11 0.9 2.75 2.9 6.57 4.46 8.5 1.55 1.93 5.05 4.6 7.76 5.95 3.91 1.94 6.48 2.44 12.43 2.44 5.6-0.01 9.53-0.71 15.5-2.78 4.4-1.52 10.44-4.42 13.42-6.44 2.99-2.02 5.86-4.35 6.39-5.17 0.67-1.04 0.03-4.56-2.07-11.5l-3.03-10c-5.97 0.32-11.54 1.67-16.21 3.21-8.16 2.68-8.5 2.91-8.5 5.79 0 2.68 0.32 2.99 3 2.94 1.65-0.04 5.36-0.83 8.25-1.75l5.25-1.69c2.18 5.04 2.96 7.35 3.15 8.39 0.26 1.42-1.14 2.71-5.65 5.22-3.3 1.83-8.48 3.84-11.5 4.46-3.9 0.8-6.66 0.82-9.5 0.08-2.2-0.57-5.32-2.08-6.93-3.35-1.61-1.26-3.74-4.1-4.73-6.3-0.99-2.2-1.81-5.69-1.82-7.75-0.01-2.06 0.88-5.55 1.98-7.75 1.1-2.2 3.24-4.85 4.75-5.88 1.51-1.04 5-2.68 7.75-3.66 3.16-1.12 8.11-1.81 13.46-1.87l8.47-0.09c1.82-5.73 1.76-6.81 0.76-7.76-0.71-0.68-4.09-1.34-7.5-1.46-3.4-0.12-8.89 0.38-12.19 1.11z"/>
		<path id="Path 3" class="s1" d="m243.5 191.07c-3.85 0.52-10.82 1.89-15.5 3.04-4.68 1.15-13 3.83-18.5 5.96-5.5 2.13-14.28 6.41-19.5 9.5-5.22 3.09-11.3 7.03-13.5 8.75-2.2 1.71-6.64 5.38-9.86 8.15-3.22 2.77-8.89 8.63-12.59 13.03-3.7 4.4-8.54 10.7-10.76 14-2.21 3.3-6.05 10.05-8.53 15-2.48 4.95-5.64 12.15-7.02 16-1.38 3.85-3.21 10.38-4.06 14.5-0.86 4.13-1.82 9.19-2.12 11.25l-0.56 3.75h43c0.89-4.26 2.07-8.65 3.18-12.5 1.12-3.85 3.62-10.15 5.56-14 1.94-3.85 5.21-9.48 7.27-12.5 2.05-3.02 5.93-7.93 8.61-10.89 2.68-2.96 7.58-7.52 10.88-10.13 3.3-2.62 8.7-6.34 12-8.27 3.3-1.94 9.37-4.86 13.5-6.49 4.12-1.64 10.65-3.68 14.5-4.54 3.85-0.86 10.82-1.87 15.5-2.24 5.09-0.4 12.31-0.18 18 0.55 5.23 0.67 13.1 2.35 17.5 3.73 4.4 1.39 10.7 3.87 14 5.53 3.3 1.65 8.47 4.64 11.48 6.63 3.01 1.99 8.36 6.32 11.88 9.62 3.52 3.3 8.99 9.6 12.16 14 3.27 4.54 7 8.55 8.62 9.27 2.07 0.92 8.25 1.2 22.36 1l19.5-0.27c0.47-3.95-1.29-8.79-3.89-14-2.46-4.95-6.86-12.6-9.76-17-2.93-4.44-10.41-13.15-16.82-19.57-7.6-7.62-14.94-13.83-21.53-18.19-5.5-3.65-13.82-8.4-18.5-10.56-4.68-2.16-12.1-5.07-16.5-6.46-4.4-1.39-11.6-3.29-16-4.22-4.62-0.97-14.13-1.83-22.5-2.03-7.98-0.2-17.65 0.07-21.5 0.6zm-122.5 156.43c0 1.38 0.71 5.99 1.57 10.25 0.87 4.26 2.89 11.69 4.5 16.5 1.61 4.81 4.79 12.46 7.06 17 2.27 4.54 6.88 12.29 10.25 17.22 3.36 4.94 10.2 13.04 15.18 18 4.98 4.97 12.63 11.59 17 14.72 4.37 3.13 12.22 7.88 17.44 10.56 5.22 2.68 13.1 6.08 17.5 7.56 4.4 1.47 12.05 3.6 17 4.72 5.38 1.22 14.63 2.28 23 2.64 8.6 0.36 17.47 0.14 23-0.58 4.95-0.65 12.82-2.09 17.5-3.19 4.68-1.1 13-3.77 18.5-5.93 5.5-2.15 14.05-6.3 19-9.21 4.95-2.92 11.93-7.52 15.5-10.23 3.57-2.72 10.32-8.79 15-13.5 4.68-4.71 11.68-13.28 15.57-19.05 3.89-5.76 8.72-13.97 10.75-18.23 2.02-4.26 3.69-8.31 3.7-9 0.01-0.69-0.56-1.82-1.25-2.52-0.94-0.93-6.2-1.26-20.02-1.25-14.64 0.02-19.41 0.35-21.75 1.52-1.65 0.82-5.42 4.76-8.38 8.75-2.96 3.99-8.47 10.15-12.25 13.69-3.78 3.54-10.02 8.47-13.87 10.94-3.85 2.48-9.93 5.82-13.5 7.43-3.57 1.62-10.77 4.02-16 5.36-5.23 1.33-13.77 2.68-19 3.01-5.34 0.33-13.44 0.07-18.5-0.6-4.95-0.65-13.5-2.72-19-4.61-5.5-1.89-13.55-5.58-17.9-8.2-4.34-2.62-11.49-8.14-15.89-12.27-4.39-4.12-9.91-10.2-12.27-13.5-2.35-3.3-6.12-9.82-8.36-14.5-2.25-4.68-5.1-12.45-6.33-17.27l-2.25-8.77-42.5 0.04zm72-252.86c-4.68 1.38-9.1 3.08-9.83 3.79-1.11 1.07-1.07 2.23 0.25 6.93 0.87 3.1 2.03 5.87 2.58 6.14 0.55 0.28 5.61-0.92 11.25-2.65 6.43-1.98 11.09-4.03 12.5-5.5 1.24-1.29 2.25-3.47 2.25-4.85 0-1.37-0.9-3.4-2-4.5-1.22-1.22-3.26-1.97-5.25-1.93-1.79 0.04-7.07 1.19-11.75 2.57zm-59.3 35.61c-0.87 6.19-1.27 11.59-0.89 12 0.38 0.41 4.51-0.39 9.19-1.79 4.68-1.39 8.95-2.94 9.5-3.45 0.65-0.6-1.74-3.95-6.75-9.47-4.26-4.7-8.14-8.54-8.61-8.54-0.47 0-1.57 5.06-2.44 11.25z"/>
	</g>
</svg>